<svg width="238" height="277" viewBox="0 0 238 277" fill="none" xmlns="http://www.w3.org/2000/svg">
<path d="M111.466 151.448L111.466 151.448C111.824 154.991 109.306 158.108 105.917 158.466C105.7 158.489 105.485 158.5 105.271 158.5C102.154 158.5 99.4293 156.08 99.0942 152.768C99.0942 152.767 99.0942 152.767 99.0942 152.767L95.5339 117.552L95.5339 117.552C95.1755 114.008 97.6941 110.892 101.083 110.534C104.467 110.179 107.548 112.694 107.906 116.231C107.906 116.231 107.906 116.231 107.906 116.231L111.466 151.448Z" fill="#FF5454" stroke="#00095F" stroke-width="3"/>
<path d="M155.466 117.552L155.466 117.552L151.907 152.768C151.907 152.768 151.907 152.768 151.907 152.768C151.572 156.08 148.848 158.5 145.73 158.5C145.516 158.5 145.301 158.489 145.085 158.466C141.694 158.108 139.175 154.992 139.534 151.447L139.534 151.447L143.093 116.231C143.093 116.231 143.093 116.231 143.093 116.231C143.451 112.694 146.528 110.18 149.917 110.533C153.306 110.891 155.825 114.007 155.466 117.552Z" fill="#FF5454" stroke="#00095F" stroke-width="3"/>
<path d="M64.5 218.497C64.5 205.758 74.4282 195.5 86.4995 195.5C98.5709 195.5 108.5 205.758 108.5 218.497C108.5 231.239 98.5705 241.5 86.4995 241.5C74.4286 241.5 64.5 231.239 64.5 218.497ZM76.6838 218.496C76.6838 224.047 81.0264 228.671 86.4995 228.671C91.9724 228.671 96.3162 224.047 96.3162 218.496C96.3162 212.946 91.9713 208.327 86.4995 208.327C81.0274 208.327 76.6838 212.947 76.6838 218.496Z" fill="#FF5454" stroke="#00095F" stroke-width="3"/>
<path d="M142.5 218.497C142.5 205.758 152.429 195.5 164.499 195.5C176.571 195.5 186.5 205.758 186.5 218.497C186.5 231.239 176.57 241.5 164.499 241.5C152.428 241.5 142.5 231.239 142.5 218.497ZM154.683 218.496C154.683 224.047 159.026 228.671 164.499 228.671C169.973 228.671 174.317 224.047 174.317 218.496C174.317 212.946 169.971 208.327 164.499 208.327C159.027 208.327 154.683 212.946 154.683 218.496Z" fill="#FF5454" stroke="#00095F" stroke-width="3"/>
<path d="M51.1225 80.4523L51.4087 81.5848H52.5768H204.384C206.26 81.5848 208.045 82.4789 209.209 84.0292C210.377 85.5839 210.784 87.6148 210.301 89.5242L211.706 89.8796L210.301 89.5243L186.732 182.769C186.021 185.582 183.57 187.5 180.815 187.5H70.257C67.5022 187.5 65.0514 185.582 64.34 182.769L40.8249 89.7375L40.8199 89.7177L40.8143 89.698C40.7824 89.5847 40.7536 89.4718 40.7285 89.3602L40.7241 89.3409L40.7193 89.3217L34.396 64.3038L34.1098 63.1714H32.9417H7.61599C4.27829 63.1714 1.5 60.3752 1.5 56.8357C1.5 53.2962 4.27829 50.5 7.61599 50.5H38.8304C41.5852 50.5 44.0359 52.418 44.7474 55.2308C44.7474 55.2308 44.7474 55.2309 44.7475 55.231L51.1225 80.4523ZM174.926 174.831H176.094L176.38 173.698L195.989 96.1248L196.461 94.2572H194.535H56.5381H54.6118L55.0838 96.1248L74.6915 173.698L74.9777 174.831H76.1457H174.926Z" fill="#FF5454" stroke="#00095F" stroke-width="3"/>
<path d="M95.7292 55.6671C97.2467 57.222 99.236 58 101.225 58C103.216 58 105.206 57.2209 106.724 55.6639C109.76 52.5498 109.759 47.5025 106.721 44.3905L82.271 19.3333C79.2337 16.2213 74.3119 16.2224 71.2757 19.3354C68.2406 22.4495 68.2416 27.4969 71.2778 30.6088L95.7292 55.6671Z" fill="#00095F"/>
<path d="M149.781 58C151.773 58 153.766 57.2209 155.286 55.6626L179.723 30.6059C182.761 27.4915 182.758 22.4436 179.718 19.3324C176.678 16.2201 171.751 16.2233 168.714 19.3377L144.277 44.3944C141.239 47.5088 141.242 52.5567 144.282 55.669C145.801 57.223 147.791 58 149.781 58Z" fill="#00095F"/>
<path d="M125.494 51C125.495 51 125.495 51 125.496 51C129.635 51 132.991 47.4561 132.992 43.0847L133 7.91956C133.001 3.54702 129.646 0.00105566 125.506 0C125.505 0 125.505 0 125.505 0C121.365 0 118.009 3.54385 118.008 7.91534L118 43.0804C117.999 47.453 121.354 50.9989 125.494 51Z" fill="#00095F"/>
<path d="M35.4062 255.625L38.957 247.938H42.8008L37.1992 258.812V265H33.625V258.812L28.0234 247.938H31.8789L35.4062 255.625ZM42.8359 258.543C42.8359 257.285 43.0781 256.164 43.5625 255.18C44.0469 254.195 44.7422 253.434 45.6484 252.895C46.5625 252.355 47.6211 252.086 48.8242 252.086C50.5352 252.086 51.9297 252.609 53.0078 253.656C54.0938 254.703 54.6992 256.125 54.8242 257.922L54.8477 258.789C54.8477 260.734 54.3047 262.297 53.2188 263.477C52.1328 264.648 50.6758 265.234 48.8477 265.234C47.0195 265.234 45.5586 264.648 44.4648 263.477C43.3789 262.305 42.8359 260.711 42.8359 258.695V258.543ZM46.2227 258.789C46.2227 259.992 46.4492 260.914 46.9023 261.555C47.3555 262.188 48.0039 262.504 48.8477 262.504C49.668 262.504 50.3086 262.191 50.7695 261.566C51.2305 260.934 51.4609 259.926 51.4609 258.543C51.4609 257.363 51.2305 256.449 50.7695 255.801C50.3086 255.152 49.6602 254.828 48.8242 254.828C47.9961 254.828 47.3555 255.152 46.9023 255.801C46.4492 256.441 46.2227 257.438 46.2227 258.789ZM64.5273 263.711C63.6914 264.727 62.5352 265.234 61.0586 265.234C59.6992 265.234 58.6602 264.844 57.9414 264.062C57.2305 263.281 56.8672 262.137 56.8516 260.629V252.32H60.2383V260.512C60.2383 261.832 60.8398 262.492 62.043 262.492C63.1914 262.492 63.9805 262.094 64.4102 261.297V252.32H67.8086V265H64.6211L64.5273 263.711ZM77.4883 255.496C77.0273 255.434 76.6211 255.402 76.2695 255.402C74.9883 255.402 74.1484 255.836 73.75 256.703V265H70.3633V252.32H73.5625L73.6562 253.832C74.3359 252.668 75.2773 252.086 76.4805 252.086C76.8555 252.086 77.207 252.137 77.5352 252.238L77.4883 255.496ZM98.7227 259.316C98.5898 261.152 97.9102 262.598 96.6836 263.652C95.4648 264.707 93.8555 265.234 91.8555 265.234C89.668 265.234 87.9453 264.5 86.6875 263.031C85.4375 261.555 84.8125 259.531 84.8125 256.961V255.918C84.8125 254.277 85.1016 252.832 85.6797 251.582C86.2578 250.332 87.082 249.375 88.1523 248.711C89.2305 248.039 90.4805 247.703 91.9023 247.703C93.8711 247.703 95.457 248.23 96.6602 249.285C97.8633 250.34 98.5586 251.82 98.7461 253.727H95.2305C95.1445 252.625 94.8359 251.828 94.3047 251.336C93.7812 250.836 92.9805 250.586 91.9023 250.586C90.7305 250.586 89.8516 251.008 89.2656 251.852C88.6875 252.688 88.3906 253.988 88.375 255.754V257.043C88.375 258.887 88.6523 260.234 89.207 261.086C89.7695 261.938 90.6523 262.363 91.8555 262.363C92.9414 262.363 93.75 262.117 94.2812 261.625C94.8203 261.125 95.1289 260.355 95.207 259.316H98.7227ZM108.156 265C108 264.695 107.887 264.316 107.816 263.863C106.996 264.777 105.93 265.234 104.617 265.234C103.375 265.234 102.344 264.875 101.523 264.156C100.711 263.438 100.305 262.531 100.305 261.438C100.305 260.094 100.801 259.062 101.793 258.344C102.793 257.625 104.234 257.262 106.117 257.254H107.676V256.527C107.676 255.941 107.523 255.473 107.219 255.121C106.922 254.77 106.449 254.594 105.801 254.594C105.23 254.594 104.781 254.73 104.453 255.004C104.133 255.277 103.973 255.652 103.973 256.129H100.586C100.586 255.395 100.812 254.715 101.266 254.09C101.719 253.465 102.359 252.977 103.188 252.625C104.016 252.266 104.945 252.086 105.977 252.086C107.539 252.086 108.777 252.48 109.691 253.27C110.613 254.051 111.074 255.152 111.074 256.574V262.07C111.082 263.273 111.25 264.184 111.578 264.801V265H108.156ZM105.355 262.645C105.855 262.645 106.316 262.535 106.738 262.316C107.16 262.09 107.473 261.789 107.676 261.414V259.234H106.41C104.715 259.234 103.812 259.82 103.703 260.992L103.691 261.191C103.691 261.613 103.84 261.961 104.137 262.234C104.434 262.508 104.84 262.645 105.355 262.645ZM120.801 255.496C120.34 255.434 119.934 255.402 119.582 255.402C118.301 255.402 117.461 255.836 117.062 256.703V265H113.676V252.32H116.875L116.969 253.832C117.648 252.668 118.59 252.086 119.793 252.086C120.168 252.086 120.52 252.137 120.848 252.238L120.801 255.496ZM127.082 249.203V252.32H129.25V254.805H127.082V261.133C127.082 261.602 127.172 261.938 127.352 262.141C127.531 262.344 127.875 262.445 128.383 262.445C128.758 262.445 129.09 262.418 129.379 262.363V264.93C128.715 265.133 128.031 265.234 127.328 265.234C124.953 265.234 123.742 264.035 123.695 261.637V254.805H121.844V252.32H123.695V249.203H127.082ZM140.688 265H137.289V252.32H140.688V265ZM137.09 249.039C137.09 248.531 137.258 248.113 137.594 247.785C137.938 247.457 138.402 247.293 138.988 247.293C139.566 247.293 140.027 247.457 140.371 247.785C140.715 248.113 140.887 248.531 140.887 249.039C140.887 249.555 140.711 249.977 140.359 250.305C140.016 250.633 139.559 250.797 138.988 250.797C138.418 250.797 137.957 250.633 137.605 250.305C137.262 249.977 137.09 249.555 137.09 249.039ZM150.355 261.496C150.355 261.082 150.148 260.758 149.734 260.523C149.328 260.281 148.672 260.066 147.766 259.879C144.75 259.246 143.242 257.965 143.242 256.035C143.242 254.91 143.707 253.973 144.637 253.223C145.574 252.465 146.797 252.086 148.305 252.086C149.914 252.086 151.199 252.465 152.16 253.223C153.129 253.98 153.613 254.965 153.613 256.176H150.227C150.227 255.691 150.07 255.293 149.758 254.98C149.445 254.66 148.957 254.5 148.293 254.5C147.723 254.5 147.281 254.629 146.969 254.887C146.656 255.145 146.5 255.473 146.5 255.871C146.5 256.246 146.676 256.551 147.027 256.785C147.387 257.012 147.988 257.211 148.832 257.383C149.676 257.547 150.387 257.734 150.965 257.945C152.754 258.602 153.648 259.738 153.648 261.355C153.648 262.512 153.152 263.449 152.16 264.168C151.168 264.879 149.887 265.234 148.316 265.234C147.254 265.234 146.309 265.047 145.48 264.672C144.66 264.289 144.016 263.77 143.547 263.113C143.078 262.449 142.844 261.734 142.844 260.969H146.055C146.086 261.57 146.309 262.031 146.723 262.352C147.137 262.672 147.691 262.832 148.387 262.832C149.035 262.832 149.523 262.711 149.852 262.469C150.188 262.219 150.355 261.895 150.355 261.496ZM178.281 257.605H171.531V262.176H179.453V265H168.016V247.938H179.43V250.785H171.531V254.852H178.281V257.605ZM184.469 252.32L184.574 253.738C185.473 252.637 186.688 252.086 188.219 252.086C189.852 252.086 190.973 252.73 191.582 254.02C192.473 252.73 193.742 252.086 195.391 252.086C196.766 252.086 197.789 252.488 198.461 253.293C199.133 254.09 199.469 255.293 199.469 256.902V265H196.07V256.914C196.07 256.195 195.93 255.672 195.648 255.344C195.367 255.008 194.871 254.84 194.16 254.84C193.145 254.84 192.441 255.324 192.051 256.293L192.062 265H188.676V256.926C188.676 256.191 188.531 255.66 188.242 255.332C187.953 255.004 187.461 254.84 186.766 254.84C185.805 254.84 185.109 255.238 184.68 256.035V265H181.293V252.32H184.469ZM213.496 258.777C213.496 260.73 213.051 262.297 212.16 263.477C211.277 264.648 210.082 265.234 208.574 265.234C207.293 265.234 206.258 264.789 205.469 263.898V269.875H202.082V252.32H205.223L205.34 253.562C206.16 252.578 207.23 252.086 208.551 252.086C210.113 252.086 211.328 252.664 212.195 253.82C213.062 254.977 213.496 256.57 213.496 258.602V258.777ZM210.109 258.531C210.109 257.352 209.898 256.441 209.477 255.801C209.062 255.16 208.457 254.84 207.66 254.84C206.598 254.84 205.867 255.246 205.469 256.059V261.25C205.883 262.086 206.621 262.504 207.684 262.504C209.301 262.504 210.109 261.18 210.109 258.531ZM219.66 249.203V252.32H221.828V254.805H219.66V261.133C219.66 261.602 219.75 261.938 219.93 262.141C220.109 262.344 220.453 262.445 220.961 262.445C221.336 262.445 221.668 262.418 221.957 262.363V264.93C221.293 265.133 220.609 265.234 219.906 265.234C217.531 265.234 216.32 264.035 216.273 261.637V254.805H214.422V252.32H216.273V249.203H219.66ZM228.449 260.207L230.793 252.32H234.426L229.328 266.969L229.047 267.637C228.289 269.293 227.039 270.121 225.297 270.121C224.805 270.121 224.305 270.047 223.797 269.898V267.332L224.312 267.344C224.953 267.344 225.43 267.246 225.742 267.051C226.062 266.855 226.312 266.531 226.492 266.078L226.891 265.035L222.449 252.32H226.094L228.449 260.207Z" fill="#00095F"/>
</svg>
